# xmcd
#
# Track frame offsets: 
#        150
#        13804
#        28881
#        43286
#        54159
#        66600
#        89221
#        104091
#        124986
#        135311
#        154609
#        173494
#        195859
#        212777
#
# Disc length: 3223 seconds
#
# Revision: 4
# Processed by: cddbd v1.5.2PL0 Copyright (c) Steve Scherf et al.
# Submitted via: ExactAudioCopy v1.0b1
#
DISCID=cb0c950e
DTITLE=Various Artist - Generation Django [Disc 2]
DYEAR=2009
DGENRE=Jazz Guitar
TTITLE0=Django Reinhardt - Eugene Vees - Blues Clair
TTITLE1=Homo Winterstein - Dorado Schmitt - Samson Schmitt - My Blue Hea
TTITLE1=ven
TTITLE2=Homo Winterstein - Brady Winterstein - Them There Eyes
TTITLE3=Homo Winterstein - Adrien Moignard - Dinette
TTITLE4=Marcell Loeffler - Montagne Ste Geneviève
TTITLE5=Rocky Gresset - Adrien Moignard - Sylvain Luc - Tears
TTITLE6=David Reinhardt - Nuits De St Germain des Prés
TTITLE7=Babik Reinhardt -  Incertitudes
TTITLE8=Homo Winterstein - Sanseverino - La Cigale Et La Fourmi
TTITLE9=Henry Salvador - Biréli Lagrène - Homo Winterstein - Envie De To
TTITLE9=i
TTITLE10=Biréli Lagrène - Sylvain Luc - Zurezat
TTITLE11=Jean Yves Dubanton - Homo Winterstein - Rocky Gresset - Fredo
TTITLE12=Caravan Palace - Jolie Coquine
TTITLE13=Stephane Grappelli - Philip Catherine - Marc Fosset - Blues For
TTITLE13=Django And Stephane
EXTD=YEAR: 2009
EXTT0=
EXTT1=
EXTT2=
EXTT3=
EXTT4=
EXTT5=
EXTT6=
EXTT7=
EXTT8=
EXTT9=
EXTT10=
EXTT11=
EXTT12=
EXTT13=
PLAYORDER=
